<?xml version="1.0" encoding="UTF-8" standalone="no"?>
<!DOCTYPE svg PUBLIC "-//W3C//DTD SVG 1.1//EN"
 "http://www.w3.org/Graphics/SVG/1.1/DTD/svg11.dtd">
<!-- Generated by graphviz version 2.36.0 (20140111.2315)
 -->
<!-- Title: GethdoDomainModel Pages: 1 -->
<svg width="262pt" height="290pt"
 viewBox="0.00 0.00 262.00 290.00" xmlns="http://www.w3.org/2000/svg" xmlns:xlink="http://www.w3.org/1999/xlink">
<g id="graph0" class="graph" transform="scale(1 1) rotate(0) translate(4 286)">
<title>GethdoDomainModel</title>
<polygon fill="white" stroke="none" points="-4,4 -4,-286 258,-286 258,4 -4,4"/>
<!-- Context -->
<g id="node1" class="node"><title>Context</title>
<polygon fill="none" stroke="black" points="0,-73 0,-109 54,-109 54,-73 0,-73"/>
<text text-anchor="middle" x="27" y="-89.1" font-family="Bitstream Vera Sans, Arial" font-size="8.00">Context</text>
</g>
<!-- Project -->
<g id="node2" class="node"><title>Project</title>
<polygon fill="none" stroke="black" points="182,-73 182,-109 236,-109 236,-73 182,-73"/>
<text text-anchor="middle" x="209" y="-98.1" font-family="Bitstream Vera Sans, Arial" font-size="8.00">Project</text>
<polyline fill="none" stroke="black" points="182,-91 236,-91 "/>
<text text-anchor="middle" x="209" y="-80.1" font-family="Bitstream Vera Sans, Arial" font-size="8.00">category</text>
</g>
<!-- Note_Project -->
<g id="node5" class="node"><title>Note_Project</title>
<polygon fill="white" stroke="cornflowerblue" points="248,-36 164,-36 164,-0 254,-0 254,-30 248,-36"/>
<polyline fill="none" stroke="cornflowerblue" points="248,-36 248,-30 "/>
<polyline fill="none" stroke="cornflowerblue" points="254,-30 248,-30 "/>
<text text-anchor="middle" x="209" y="-25.1" font-family="Bitstream Vera Sans, Arial" font-size="8.00">project_category:</text>
<text text-anchor="middle" x="209" y="-16.1" font-family="Bitstream Vera Sans, Arial" font-size="8.00">this_week, soon,</text>
<text text-anchor="middle" x="209" y="-7.1" font-family="Bitstream Vera Sans, Arial" font-size="8.00">someday_maybe</text>
</g>
<!-- Project&#45;&gt;Note_Project -->
<g id="edge6" class="edge"><title>Project&#45;&gt;Note_Project</title>
<path fill="none" stroke="cornflowerblue" stroke-dasharray="5,2" d="M209,-72.8129C209,-61.6499 209,-47.1602 209,-36.0288"/>
</g>
<!-- Task -->
<g id="node3" class="node"><title>Task</title>
<polygon fill="none" stroke="black" points="88,-146.5 88,-207.5 148,-207.5 148,-146.5 88,-146.5"/>
<text text-anchor="middle" x="118" y="-197.1" font-family="Bitstream Vera Sans, Arial" font-size="8.00">Task</text>
<polyline fill="none" stroke="black" points="88,-190.5 148,-190.5 "/>
<text text-anchor="middle" x="118" y="-180.1" font-family="Bitstream Vera Sans, Arial" font-size="8.00">title</text>
<text text-anchor="middle" x="118" y="-171.1" font-family="Bitstream Vera Sans, Arial" font-size="8.00">due_date</text>
<text text-anchor="middle" x="118" y="-162.1" font-family="Bitstream Vera Sans, Arial" font-size="8.00">start_date</text>
<text text-anchor="middle" x="118" y="-153.1" font-family="Bitstream Vera Sans, Arial" font-size="8.00">is_flagged</text>
</g>
<!-- Task&#45;&gt;Context -->
<g id="edge4" class="edge"><title>Task&#45;&gt;Context</title>
<path fill="none" stroke="black" d="M87.951,-148.262C75.1743,-136.469 60.5531,-122.972 48.8343,-112.155"/>
<polygon fill="black" stroke="black" points="45.6099,-109.178 49.77,-110.569 47.0795,-110.535 48.5491,-111.891 48.5491,-111.891 48.5491,-111.891 47.0795,-110.535 47.3282,-113.214 45.6099,-109.178 45.6099,-109.178"/>
<text text-anchor="middle" x="37.1099" y="-111.778" font-family="Bitstream Vera Sans, Arial" font-size="8.00">0..1</text>
<text text-anchor="middle" x="85.451" y="-150.862" font-family="Bitstream Vera Sans, Arial" font-size="8.00">*</text>
</g>
<!-- Task&#45;&gt;Project -->
<g id="edge5" class="edge"><title>Task&#45;&gt;Project</title>
<path fill="none" stroke="black" d="M148.049,-148.262C160.826,-136.469 175.447,-122.972 187.166,-112.155"/>
<polygon fill="black" stroke="black" points="190.39,-109.178 188.672,-113.214 188.921,-110.535 187.451,-111.891 187.451,-111.891 187.451,-111.891 188.921,-110.535 186.23,-110.569 190.39,-109.178 190.39,-109.178"/>
<text text-anchor="middle" x="181.89" y="-111.778" font-family="Bitstream Vera Sans, Arial" font-size="8.00">0..1</text>
<text text-anchor="middle" x="150.549" y="-150.862" font-family="Bitstream Vera Sans, Arial" font-size="8.00">*</text>
</g>
<!-- Note_Task -->
<g id="node6" class="node"><title>Note_Task</title>
<polygon fill="white" stroke="cornflowerblue" points="158,-109 72,-109 72,-73 164,-73 164,-103 158,-109"/>
<polyline fill="none" stroke="cornflowerblue" points="158,-109 158,-103 "/>
<polyline fill="none" stroke="cornflowerblue" points="164,-103 158,-103 "/>
<text text-anchor="middle" x="118" y="-89.1" font-family="Bitstream Vera Sans, Arial" font-size="8.00">no project = Inbox</text>
</g>
<!-- Task&#45;&gt;Note_Task -->
<g id="edge7" class="edge"><title>Task&#45;&gt;Note_Task</title>
<path fill="none" stroke="cornflowerblue" stroke-dasharray="5,2" d="M118,-146.148C118,-133.699 118,-119.692 118,-109.043"/>
</g>
<!-- User -->
<g id="node4" class="node"><title>User</title>
<polygon fill="none" stroke="black" points="91,-245 91,-281 145,-281 145,-245 91,-245"/>
<text text-anchor="middle" x="118" y="-261.1" font-family="Bitstream Vera Sans, Arial" font-size="8.00">User</text>
</g>
<!-- User&#45;&gt;Context -->
<g id="edge1" class="edge"><title>User&#45;&gt;Context</title>
<path fill="none" stroke="black" d="M104.049,-244.615C96.1493,-234.32 86.3993,-220.82 79,-208 60.6454,-176.198 44.1848,-136.737 34.9088,-113.005"/>
<polygon fill="black" stroke="black" points="33.3721,-109.048 36.4983,-112.125 34.0963,-110.913 34.8204,-112.777 34.8204,-112.777 34.8204,-112.777 34.0963,-110.913 33.1425,-113.429 33.3721,-109.048 33.3721,-109.048"/>
<text text-anchor="middle" x="30.8721" y="-111.648" font-family="Bitstream Vera Sans, Arial" font-size="8.00">*</text>
<text text-anchor="middle" x="101.049" y="-238.215" font-family="Bitstream Vera Sans, Arial" font-size="8.00">1</text>
</g>
<!-- User&#45;&gt;Project -->
<g id="edge2" class="edge"><title>User&#45;&gt;Project</title>
<path fill="none" stroke="black" d="M131.523,-244.546C139.198,-234.227 148.698,-220.727 156,-208 174.332,-176.048 191.222,-136.632 200.801,-112.949"/>
<polygon fill="black" stroke="black" points="202.389,-109.002 202.566,-113.385 201.643,-110.857 200.896,-112.713 200.896,-112.713 200.896,-112.713 201.643,-110.857 199.226,-112.041 202.389,-109.002 202.389,-109.002"/>
<text text-anchor="middle" x="199.889" y="-111.602" font-family="Bitstream Vera Sans, Arial" font-size="8.00">*</text>
<text text-anchor="middle" x="128.523" y="-238.146" font-family="Bitstream Vera Sans, Arial" font-size="8.00">1</text>
</g>
<!-- User&#45;&gt;Task -->
<g id="edge3" class="edge"><title>User&#45;&gt;Task</title>
<path fill="none" stroke="black" d="M118,-244.595C118,-235.094 118,-223 118,-211.732"/>
<polygon fill="black" stroke="black" points="118,-207.624 119.8,-211.624 118,-209.624 118,-211.624 118,-211.624 118,-211.624 118,-209.624 116.2,-211.625 118,-207.624 118,-207.624"/>
<text text-anchor="middle" x="115.5" y="-210.224" font-family="Bitstream Vera Sans, Arial" font-size="8.00">*</text>
<text text-anchor="middle" x="115" y="-238.195" font-family="Bitstream Vera Sans, Arial" font-size="8.00">1</text>
</g>
</g>
</svg>
