<?xml version="1.0" encoding="UTF-8" standalone="no"?>
<!DOCTYPE svg PUBLIC "-//W3C//DTD SVG 1.1//EN"
 "http://www.w3.org/Graphics/SVG/1.1/DTD/svg11.dtd">
<!-- Generated by graphviz version 2.26.3 (20100126.1600)
 -->
<!-- Title: GethdoDomainModel Pages: 1 -->
<svg width="262pt" height="298pt"
 viewBox="0.00 0.00 262.00 298.00" xmlns="http://www.w3.org/2000/svg" xmlns:xlink="http://www.w3.org/1999/xlink">
<g id="graph1" class="graph" transform="scale(1 1) rotate(0) translate(4 294)">
<title>GethdoDomainModel</title>
<polygon fill="white" stroke="white" points="-4,5 -4,-294 259,-294 259,5 -4,5"/>
<!-- Context -->
<g id="node1" class="node"><title>Context</title>
<polygon fill="none" stroke="black" points="0,-75 0,-111 54,-111 54,-75 0,-75"/>
<text text-anchor="middle" x="27" y="-90.8" font-family="Bitstream Vera Sans, Arial" font-size="8.00">Context</text>
</g>
<!-- Project -->
<g id="node2" class="node"><title>Project</title>
<polygon fill="none" stroke="black" points="182,-75 182,-111 236,-111 236,-75 182,-75"/>
<text text-anchor="middle" x="209" y="-99.8" font-family="Bitstream Vera Sans, Arial" font-size="8.00">Project</text>
<polyline fill="none" stroke="black" points="182,-93 236,-93 "/>
<text text-anchor="middle" x="209" y="-81.8" font-family="Bitstream Vera Sans, Arial" font-size="8.00">category</text>
</g>
<!-- Note_Project -->
<g id="node10" class="node"><title>Note_Project</title>
<polygon fill="lightgrey" stroke="lightgrey" points="248,-38 164,-38 164,-2.13163e-14 254,-7.10543e-15 254,-32 248,-38"/>
<polyline fill="none" stroke="lightgrey" points="248,-38 248,-32 "/>
<polyline fill="none" stroke="lightgrey" points="254,-32 248,-32 "/>
<text text-anchor="middle" x="209" y="-26.8" font-family="Bitstream Vera Sans, Arial" font-size="8.00">project_category:</text>
<text text-anchor="middle" x="209" y="-16.8" font-family="Bitstream Vera Sans, Arial" font-size="8.00">this_week, soon,</text>
<text text-anchor="middle" x="209" y="-6.8" font-family="Bitstream Vera Sans, Arial" font-size="8.00">someday_maybe</text>
</g>
<!-- Project&#45;&gt;Note_Project -->
<g id="edge12" class="edge"><title>Project&#45;&gt;Note_Project</title>
<path fill="none" stroke="grey" stroke-dasharray="5,2" d="M209,-74.7079C209,-63.5799 209,-49.3882 209,-38.114"/>
</g>
<!-- Task -->
<g id="node3" class="node"><title>Task</title>
<polygon fill="none" stroke="black" points="88,-149 88,-215 148,-215 148,-149 88,-149"/>
<text text-anchor="middle" x="118" y="-203.8" font-family="Bitstream Vera Sans, Arial" font-size="8.00">Task</text>
<polyline fill="none" stroke="black" points="88,-197 148,-197 "/>
<text text-anchor="middle" x="118" y="-185.8" font-family="Bitstream Vera Sans, Arial" font-size="8.00">title</text>
<text text-anchor="middle" x="118" y="-175.8" font-family="Bitstream Vera Sans, Arial" font-size="8.00">due_date</text>
<text text-anchor="middle" x="118" y="-165.8" font-family="Bitstream Vera Sans, Arial" font-size="8.00">start_date</text>
<text text-anchor="middle" x="118" y="-155.8" font-family="Bitstream Vera Sans, Arial" font-size="8.00">is_flagged</text>
</g>
<!-- Task&#45;&gt;Context -->
<g id="edge8" class="edge"><title>Task&#45;&gt;Context</title>
<path fill="none" stroke="black" d="M87.951,-152.611C76.5939,-141.504 63.7795,-128.971 52.8415,-118.274"/>
<polygon fill="black" stroke="black" points="55.2063,-115.691 45.6099,-111.201 50.3119,-120.695 55.2063,-115.691"/>
<text text-anchor="middle" x="55.0442" y="-112.316" font-family="Bitstream Vera Sans, Arial" font-size="8.00">0..1</text>
<text text-anchor="middle" x="78.5167" y="-147.096" font-family="Bitstream Vera Sans, Arial" font-size="8.00">*</text>
</g>
<!-- Task&#45;&gt;Project -->
<g id="edge10" class="edge"><title>Task&#45;&gt;Project</title>
<path fill="none" stroke="black" d="M148.049,-152.611C159.406,-141.504 172.22,-128.971 183.158,-118.274"/>
<polygon fill="black" stroke="black" points="185.688,-120.695 190.39,-111.201 180.794,-115.691 185.688,-120.695"/>
<text text-anchor="middle" x="186.866" y="-118.359" font-family="Bitstream Vera Sans, Arial" font-size="8.00">0..1</text>
<text text-anchor="middle" x="151.573" y="-141.053" font-family="Bitstream Vera Sans, Arial" font-size="8.00">*</text>
</g>
<!-- Note_Task -->
<g id="node12" class="node"><title>Note_Task</title>
<polygon fill="lightgrey" stroke="lightgrey" points="158,-111 72,-111 72,-75 164,-75 164,-105 158,-111"/>
<polyline fill="none" stroke="lightgrey" points="158,-111 158,-105 "/>
<polyline fill="none" stroke="lightgrey" points="164,-105 158,-105 "/>
<text text-anchor="middle" x="118" y="-90.8" font-family="Bitstream Vera Sans, Arial" font-size="8.00">no project = Inbox</text>
</g>
<!-- Task&#45;&gt;Note_Task -->
<g id="edge14" class="edge"><title>Task&#45;&gt;Note_Task</title>
<path fill="none" stroke="grey" stroke-dasharray="5,2" d="M118,-148.86C118,-136.208 118,-122.243 118,-111.441"/>
</g>
<!-- User -->
<g id="node4" class="node"><title>User</title>
<polygon fill="none" stroke="black" points="91,-253 91,-289 145,-289 145,-253 91,-253"/>
<text text-anchor="middle" x="118" y="-268.8" font-family="Bitstream Vera Sans, Arial" font-size="8.00">User</text>
</g>
<!-- User&#45;&gt;Context -->
<g id="edge2" class="edge"><title>User&#45;&gt;Context</title>
<path fill="none" stroke="black" d="M103.597,-252.823C95.7392,-242.409 86.1794,-228.884 79,-216 61.4654,-184.533 46.0604,-145.954 36.659,-120.487"/>
<polygon fill="black" stroke="black" points="39.9474,-119.288 33.2416,-111.085 33.3686,-121.679 39.9474,-119.288"/>
<text text-anchor="middle" x="40.3097" y="-115.959" font-family="Bitstream Vera Sans, Arial" font-size="8.00">*</text>
<text text-anchor="middle" x="94.784" y="-245.897" font-family="Bitstream Vera Sans, Arial" font-size="8.00">1</text>
</g>
<!-- User&#45;&gt;Project -->
<g id="edge4" class="edge"><title>User&#45;&gt;Project</title>
<path fill="none" stroke="black" d="M132.403,-252.823C140.261,-242.409 149.821,-228.884 157,-216 174.535,-184.533 189.94,-145.954 199.341,-120.487"/>
<polygon fill="black" stroke="black" points="202.631,-121.679 202.758,-111.085 196.053,-119.288 202.631,-121.679"/>
<text text-anchor="middle" x="203.634" y="-118.847" font-family="Bitstream Vera Sans, Arial" font-size="8.00">*</text>
<text text-anchor="middle" x="134.448" y="-240.834" font-family="Bitstream Vera Sans, Arial" font-size="8.00">1</text>
</g>
<!-- User&#45;&gt;Task -->
<g id="edge6" class="edge"><title>User&#45;&gt;Task</title>
<path fill="none" stroke="black" d="M118,-252.99C118,-244.922 118,-235.029 118,-225.218"/>
<polygon fill="black" stroke="black" points="121.5,-225.105 118,-215.105 114.5,-225.105 121.5,-225.105"/>
<text text-anchor="middle" x="122.226" y="-221.968" font-family="Bitstream Vera Sans, Arial" font-size="8.00">*</text>
<text text-anchor="middle" x="113.774" y="-241.726" font-family="Bitstream Vera Sans, Arial" font-size="8.00">1</text>
</g>
</g>
</svg>
